<?xml version="1.0" standalone="no"?>
<!DOCTYPE svg PUBLIC "-//W3C//DTD SVG 20010904//EN"
 "http://www.w3.org/TR/2001/REC-SVG-20010904/DTD/svg10.dtd">
<svg version="1.0" xmlns="http://www.w3.org/2000/svg"
 width="256.000000pt" height="256.000000pt" viewBox="0 0 256.000000 256.000000"
 preserveAspectRatio="xMidYMid meet">
<metadata>
Created by potrace 1.11, written by Peter Selinger 2001-2013
</metadata>
<g transform="translate(0.000000,256.000000) scale(0.100000,-0.100000)"
fill="#000000" stroke="none">
<path d="M2048 2545 c-2 -2 -30 -6 -63 -9 -163 -18 -396 -128 -570 -269 -125
-102 -386 -385 -465 -506 -18 -27 5 -29 -244 29 -72 16 -138 30 -147 30 -9 0
-29 -15 -44 -32 -25 -29 -178 -197 -245 -268 -124 -132 -128 -141 -52 -153 20
-3 67 -13 103 -21 36 -8 81 -17 100 -20 72 -12 210 -44 215 -49 3 -3 -4 -24
-16 -46 -38 -76 -26 -181 29 -238 18 -19 19 -23 5 -31 -8 -5 -49 -41 -90 -82
-65 -65 -74 -78 -74 -110 0 -49 43 -113 132 -195 81 -75 130 -95 175 -71 16 8
59 46 96 85 69 71 84 80 103 61 5 -5 32 -14 59 -19 42 -8 60 -6 115 13 36 13
72 26 81 30 13 6 18 -1 24 -36 4 -24 9 -47 10 -53 2 -5 5 -21 8 -35 3 -14 19
-93 36 -175 17 -83 33 -161 36 -174 8 -44 22 -47 57 -15 18 17 62 57 98 91 36
33 92 85 124 114 33 30 86 79 118 109 l58 55 -15 60 c-31 126 -75 318 -75 329
0 6 37 38 83 71 369 265 612 554 697 830 69 224 45 469 -58 586 -38 43 -111
84 -177 99 -44 10 -220 21 -227 15z"/>
<path d="M235 455 c-93 -95 -169 -177 -168 -181 1 -5 6 -10 11 -12 10 -3 352
336 352 349 0 31 -49 -8 -195 -156z"/>
<path d="M247 278 c-130 -133 -237 -245 -237 -250 0 -30 58 20 265 230 129
130 235 243 235 250 0 6 -6 12 -12 12 -7 0 -120 -109 -251 -242z"/>
<path d="M412 247 c-161 -162 -190 -197 -159 -197 15 0 347 333 347 348 0 31
-31 6 -188 -151z"/>
</g>
</svg>
